<svg width="24" height="24" viewBox="0 0 24 24" fill="none" xmlns="http://www.w3.org/2000/svg">
<path d="M4.49983 11.6079C4.49983 7.18963 8.08125 3.60791 12.4992 3.60791C16.9171 3.60791 20.4985 7.18963 20.4985 11.6079C20.4985 12.7579 20.2558 13.8513 19.819 14.8395L20.5 19.6072L16.4146 18.5857C15.2572 19.2366 13.9215 19.6079 12.4992 19.6079M2.50095 16.6079C2.50095 17.3267 2.65258 18.01 2.9256 18.6277L2.5 21.6074L5.05315 20.969C5.77643 21.3759 6.61115 21.6079 7.50005 21.6079C10.261 21.6079 12.4992 19.3693 12.4992 16.6079C12.4992 13.8465 10.261 11.6079 7.50005 11.6079C4.73912 11.6079 2.50095 13.8465 2.50095 16.6079Z" stroke="#0A090B" stroke-width="2" stroke-linecap="round" stroke-linejoin="round"/>
</svg>
