<svg width="24" height="24" viewBox="0 0 24 24" fill="none" xmlns="http://www.w3.org/2000/svg">
<path d="M2 18.4336C3.09864 16.6011 5.50651 15.3469 9.26312 15.3469C13.0197 15.3469 15.4276 16.6011 16.5262 18.4336M17.2212 13.9574C19.2106 14.952 20.2053 15.9467 21.2 17.9361M15.1522 6.35439C16.0883 6.85795 16.7246 7.84671 16.7246 8.9841C16.7246 10.0886 16.1245 11.053 15.2326 11.569M12.2472 8.98407C12.2472 10.6321 10.9112 11.9681 9.26312 11.9681C7.61506 11.9681 6.27905 10.6321 6.27905 8.98407C6.27905 7.33601 7.61506 6 9.26312 6C10.9112 6 12.2472 7.33601 12.2472 8.98407Z" stroke="#0A090B" stroke-width="2" stroke-linecap="round"/>
</svg>
