<svg width="24" height="24" viewBox="0 0 24 24" fill="none" xmlns="http://www.w3.org/2000/svg">
<path d="M15.0588 15.6066C15.5827 15.7813 16.149 15.4981 16.3237 14.9742C16.4983 14.4502 16.2152 13.8839 15.6912 13.7093L15.0588 15.6066ZM12 13.533H11C11 13.9634 11.2754 14.3455 11.6838 14.4816L12 13.533ZM13 8.82883C13 8.27654 12.5523 7.82883 12 7.82883C11.4477 7.82883 11 8.27654 11 8.82883H13ZM15.6912 13.7093L12.3162 12.5843L11.6838 14.4816L15.0588 15.6066L15.6912 13.7093ZM13 13.533V8.82883H11V13.533H13ZM20 12.408C20 16.8262 16.4183 20.408 12 20.408V22.408C17.5228 22.408 22 17.9308 22 12.408H20ZM12 20.408C7.58172 20.408 4 16.8262 4 12.408H2C2 17.9308 6.47715 22.408 12 22.408V20.408ZM4 12.408C4 7.98968 7.58172 4.40796 12 4.40796V2.40796C6.47715 2.40796 2 6.88511 2 12.408H4ZM12 4.40796C16.4183 4.40796 20 7.98968 20 12.408H22C22 6.88511 17.5228 2.40796 12 2.40796V4.40796Z" fill="#0A090B"/>
</svg>
