<svg width="16" height="16" viewBox="0 0 16 16" fill="none" xmlns="http://www.w3.org/2000/svg">
<path d="M13 1.25C13.8284 1.25 14.5 1.91237 14.5 2.72945L14.5 13.2705C14.5 14.0876 13.8284 14.75 13 14.75H10.75C9.92157 14.75 9.25 14.0876 9.25 13.2705L9.25 2.72945C9.25 1.91237 9.92157 1.25 10.75 1.25L13 1.25Z" stroke="#C4C4C4" stroke-width="1.5" stroke-linecap="round" stroke-linejoin="round"/>
<path d="M2.5 1.25C1.67157 1.25 1 1.91237 1 2.72945L1 13.2705C1 14.0876 1.67157 14.75 2.5 14.75H4.75C5.57843 14.75 6.25 14.0876 6.25 13.2705L6.25 2.72945C6.25 1.91237 5.57843 1.25 4.75 1.25L2.5 1.25Z" stroke="#C4C4C4" stroke-width="1.5" stroke-linecap="round" stroke-linejoin="round"/>
</svg>
