<svg width="210" height="215" viewBox="0 0 210 215" fill="none" xmlns="http://www.w3.org/2000/svg">
<path d="M101.267 84.4624C73.7076 104.642 55.17 78.0332 24.4929 99.1942C-10.7838 123.528 16.5072 174.626 53.7564 188.463C95.8615 204.104 213.749 187.453 196.529 115.236C181.529 52.3258 123.955 67.8499 101.267 84.4624Z" fill="#FF9D2B"/>
<path d="M58.7936 67.1293L56.3926 144.065L58.7936 143.103L62.475 69.5335L97.0491 51.2613C97.0491 57.9931 102.331 59.3268 105.212 57.9931L159.474 29.1423L153.232 97.7432L156.593 96.1404L163.796 22.0898C146.136 31.9205 110.206 51.0689 105.212 53.5052C100.218 55.9415 99.3967 49.3913 99.6101 45.8117L58.7936 67.1293Z" fill="black"/>
<path d="M156.514 94.3086L57.5102 138.307L56.3925 144.067L156.035 100.868L156.514 94.3086Z" fill="black"/>
<path d="M46.0769 60.6446L56.6728 143.456L58.2782 137.839L49.7694 62.8914L149.306 13.6219L147.861 32.7199L152.036 30.794L153.48 7.52344L46.0769 60.6446Z" fill="black"/>
<path d="M31.4408 52.1225L56.3223 144.323L57.1254 138.187L35.3621 53.9409L129.789 6.52942L129.789 20.4715L133.72 18.0882L133.72 -0.00124907L31.4408 52.1225Z" fill="black"/>
<path d="M113.47 91.8099C112.862 92.3801 112.226 92.7739 111.563 92.9914C110.901 93.2088 110.351 93.3514 109.913 93.4191C108.942 93.5695 108.055 93.518 107.253 93.2646C106.467 93.0087 105.813 92.5848 105.29 91.9927C104.768 91.4007 104.439 90.6718 104.305 89.8062C104.142 88.7483 104.371 87.7689 104.995 86.8682C105.634 85.9649 106.488 85.1105 107.558 84.3049C108.627 83.4993 109.77 82.6904 110.987 81.8782C112.218 81.0475 113.361 80.1813 114.415 79.2795C115.483 78.3592 116.315 77.3604 116.911 76.2834C117.505 75.1903 117.697 73.9705 117.489 72.624C117.224 70.9088 116.496 69.6919 115.307 68.9732C114.132 68.2359 112.63 68.0089 110.8 68.2922C109.828 68.4426 108.94 68.7031 108.135 69.0739C107.346 69.4422 106.72 69.8428 106.257 70.2756C105.791 70.6924 105.584 71.0692 105.636 71.4058C105.705 71.8546 105.891 72.1952 106.192 72.4276C106.493 72.66 106.806 72.9646 107.129 73.3412C107.466 73.6994 107.702 74.3112 107.836 75.1768C107.948 75.8982 107.853 76.5201 107.553 77.0426C107.269 77.5626 106.86 77.9787 106.328 78.2908C105.796 78.6029 105.223 78.8066 104.607 78.9019C103.992 78.9971 103.38 78.9524 102.771 78.7676C102.178 78.5803 101.661 78.2417 101.221 77.7519C100.78 77.262 100.497 76.6083 100.37 75.7908C100.137 74.284 100.426 72.8278 101.236 71.4221C102.046 70.0164 103.316 68.7939 105.046 67.7548C106.791 66.7132 108.927 65.9968 111.453 65.6058C114.773 65.092 117.393 65.4168 119.314 66.5803C121.235 67.7437 122.401 69.6479 122.81 72.2928C123.09 74.1041 122.916 75.7069 122.286 77.101C121.653 78.4792 120.763 79.692 119.616 80.7396C118.468 81.7872 117.209 82.7043 115.838 83.4909C114.484 84.275 113.202 84.9905 111.992 85.6374C110.78 86.2682 109.795 86.8719 109.039 87.4486C108.296 88.0067 107.972 88.5903 108.066 89.1994C108.126 89.5841 108.314 89.8914 108.632 90.1213C108.949 90.3512 109.392 90.4223 109.958 90.3346C110.25 90.2895 110.638 90.172 111.122 89.9821C111.607 89.7921 112.087 89.4635 112.562 88.9961C112.761 88.7846 112.897 88.698 112.969 88.736C113.055 88.7556 113.163 88.9687 113.292 89.3754L113.803 90.7489C113.901 91.062 113.918 91.2809 113.855 91.4057C113.805 91.5119 113.677 91.6466 113.47 91.8099ZM106.568 101.052C106.474 100.443 106.543 99.8743 106.777 99.3457C107.007 98.8012 107.342 98.3391 107.781 97.9593C108.236 97.577 108.771 97.3383 109.386 97.243C110.001 97.1478 110.584 97.2136 111.133 97.4405C111.682 97.6673 112.141 98.0066 112.509 98.4584C112.891 98.8917 113.129 99.4129 113.224 100.022C113.318 100.631 113.25 101.208 113.019 101.753C112.804 102.295 112.468 102.749 112.011 103.115C111.556 103.497 111.021 103.736 110.406 103.831C109.79 103.926 109.208 103.861 108.659 103.634C108.129 103.42 107.671 103.089 107.286 102.64C106.902 102.191 106.662 101.661 106.568 101.052Z" fill="black"/>
</svg>
