<svg width="25" height="25" viewBox="0 0 25 25" fill="none" xmlns="http://www.w3.org/2000/svg">
<path d="M0.0771484 12.6304C0.0771484 8.90284 0.0771484 7.03907 0.686112 5.5689C1.49806 3.60868 3.05546 2.05129 5.01568 1.23933C6.48585 0.630371 8.34962 0.630371 12.0771 0.630371C15.8047 0.630371 17.6684 0.630371 19.1386 1.23933C21.0988 2.05129 22.6562 3.60868 23.4682 5.5689C24.0771 7.03907 24.0771 8.90284 24.0771 12.6304C24.0771 16.3579 24.0771 18.2217 23.4682 19.6918C22.6562 21.6521 21.0988 23.2095 19.1386 24.0214C17.6684 24.6304 15.8047 24.6304 12.0771 24.6304C8.34962 24.6304 6.48585 24.6304 5.01568 24.0214C3.05546 23.2095 1.49806 21.6521 0.686112 19.6918C0.0771484 18.2217 0.0771484 16.3579 0.0771484 12.6304Z" fill="#D9D9D9"/>
</svg>
