<svg width="17" height="17" viewBox="0 0 17 17" fill="none" xmlns="http://www.w3.org/2000/svg">
<g clip-path="url(#clip0_34_4481)">
<path fill-rule="evenodd" clip-rule="evenodd" d="M13.0915 0.916656C13.3677 0.916656 13.5915 1.14051 13.5915 1.41666V3.08332H15.2582C15.5343 3.08332 15.7582 3.30718 15.7582 3.58332C15.7582 3.85947 15.5343 4.08332 15.2582 4.08332H13.5915V5.74999C13.5915 6.02613 13.3677 6.24999 13.0915 6.24999C12.8154 6.24999 12.5915 6.02613 12.5915 5.74999V4.08332H10.9248C10.6487 4.08332 10.4248 3.85947 10.4248 3.58332C10.4248 3.30718 10.6487 3.08332 10.9248 3.08332H12.5915V1.41666C12.5915 1.14051 12.8154 0.916656 13.0915 0.916656Z" fill="#A4A2A2"/>
<path d="M7.42485 6.58332C7.42485 7.13561 7.05175 7.58332 6.59151 7.58332C6.13128 7.58332 5.75818 7.13561 5.75818 6.58332C5.75818 6.03104 6.13128 5.58332 6.59151 5.58332C7.05175 5.58332 7.42485 6.03104 7.42485 6.58332Z" fill="#A4A2A2"/>
<path d="M11.0915 6.58332C11.0915 7.13561 10.7184 7.58332 10.2582 7.58332C9.79794 7.58332 9.42485 7.13561 9.42485 6.58332C9.42485 6.03104 9.79794 5.58332 10.2582 5.58332C10.7184 5.58332 11.0915 6.03104 11.0915 6.58332Z" fill="#A4A2A2"/>
<path fill-rule="evenodd" clip-rule="evenodd" d="M6.18588 9.78206C6.38114 9.58679 6.69772 9.58679 6.89298 9.78206C7.73911 10.6282 9.11097 10.6282 9.95711 9.78206C10.1524 9.58679 10.469 9.58679 10.6642 9.78206C10.8595 9.97732 10.8595 10.2939 10.6642 10.4892C9.42756 11.7258 7.42253 11.7258 6.18587 10.4892C5.99061 10.2939 5.99061 9.97732 6.18588 9.78206Z" fill="#A4A2A2"/>
<path fill-rule="evenodd" clip-rule="evenodd" d="M8.42447 2.58333C5.29487 2.58332 2.75781 5.12037 2.75781 8.24999C2.7578 11.3796 5.29486 13.9167 8.42448 13.9167C11.5541 13.9167 14.0911 11.3796 14.0911 8.24999C14.0911 7.97385 14.315 7.74999 14.5911 7.74999C14.8673 7.74999 15.0911 7.97385 15.0911 8.24999C15.0911 11.9319 12.1064 14.9167 8.42448 14.9167C4.74257 14.9167 1.7578 11.9319 1.75781 8.24999C1.75781 4.56809 4.74258 1.58332 8.42448 1.58333C8.70062 1.58333 8.92448 1.80719 8.92448 2.08333C8.92447 2.35947 8.70062 2.58333 8.42447 2.58333Z" fill="#A4A2A2"/>
</g>
<defs>
<clipPath id="clip0_34_4481">
<rect width="16" height="16" fill="white" transform="translate(0.425781 0.25)"/>
</clipPath>
</defs>
</svg>
