<svg width="14" height="18" viewBox="0 0 14 18" fill="none" xmlns="http://www.w3.org/2000/svg">
<path d="M5.01129 14.2571H9.32335M11.5928 17H2.74179C2.24042 17 1.83398 16.5907 1.83398 16.0857V13.6433C1.83398 13.4481 1.896 13.2581 2.01095 13.101L4.61449 9.54235C4.85046 9.21983 4.85046 8.78017 4.61449 8.45765L2.01095 4.89903C1.896 4.74191 1.83398 4.55185 1.83398 4.35668V1.91429C1.83398 1.40934 2.24042 1 2.74179 1H11.3659C11.8673 1 12.2737 1.40934 12.2737 1.91429V4.3743C12.2737 4.55855 12.2184 4.73851 12.1151 4.89058L9.68741 8.46411C9.46939 8.78502 9.47677 9.2097 9.70579 9.52274L12.3237 13.101C12.4386 13.2581 12.5007 13.4481 12.5007 13.6433V16.0857C12.5007 16.5907 12.0942 17 11.5928 17Z" stroke="#252C32" stroke-width="1.77778" stroke-linecap="round" stroke-linejoin="round"/>
</svg>
