<svg width="17" height="15" viewBox="0 0 17 15" fill="none" xmlns="http://www.w3.org/2000/svg">
<path d="M5.72695 10.3347H3.79403C2.56914 10.3347 1.57617 9.489 1.57617 8.24905C1.57617 7.0091 2.56914 6.00393 3.79403 6.00393C3.87732 6.00393 3.95955 6.00858 4.04046 6.01763V6.00393H4.07096C4.05083 5.84048 4.04046 5.67397 4.04046 5.50501C4.04046 3.30065 5.80573 1.51367 7.98331 1.51367C9.45791 1.51367 10.7434 2.33311 11.4198 3.5467C11.585 3.52209 11.7541 3.50934 11.9262 3.50934C13.8316 3.50934 15.3762 5.07295 15.3762 7.00176C15.3762 8.76118 14.0909 10.0572 12.419 10.2993H10.6324M8.22974 6.25339V13.9337M8.22974 13.9337L6.48164 12.2092M8.22974 13.9337L9.93164 12.2092" stroke="white" stroke-width="1.38" stroke-linecap="round" stroke-linejoin="round"/>
</svg>
