<svg width="17" height="17" viewBox="0 0 17 17" fill="none" xmlns="http://www.w3.org/2000/svg">
<path d="M13.7604 3.25H3.09375C2.54147 3.25 2.09375 3.69772 2.09375 4.25V12.25C2.09375 12.8023 2.54147 13.25 3.09375 13.25H13.7604C14.3127 13.25 14.7604 12.8023 14.7604 12.25V4.25C14.7604 3.69772 14.3127 3.25 13.7604 3.25Z" stroke="#A4A2A2" stroke-linejoin="round"/>
<path d="M4.09375 8.58661C4.09375 9.83784 4.76578 10.5833 5.89429 10.5833C6.86112 10.5833 7.55534 9.93636 7.55534 9.02996V8.60303C7.55534 8.27134 7.40953 8.12027 7.08302 8.12027H6.15739C5.94818 8.12027 5.82455 8.22864 5.82455 8.41584C5.82455 8.60303 5.94818 8.7114 6.15739 8.7114H6.86429V9.0628C6.86429 9.59153 6.48707 9.94621 5.91648 9.94621C5.21909 9.94621 4.81333 9.44703 4.81333 8.58332V7.92651C4.81333 7.04966 5.20324 6.5669 5.89429 6.5669C6.34442 6.5669 6.63923 6.80992 6.89282 7.22372C6.98158 7.36165 7.06083 7.41419 7.18129 7.41419C7.36198 7.41419 7.48244 7.2894 7.48244 7.09564C7.48244 6.87889 7.32394 6.59318 7.08302 6.36657C6.78187 6.07101 6.36027 5.91666 5.85308 5.91666C4.74676 5.91666 4.09375 6.66542 4.09375 7.90352V8.58661Z" fill="#A4A2A2"/>
<path d="M8.71238 10.5209C8.93745 10.5209 9.07058 10.3699 9.07058 10.1137V6.37971C9.07058 6.12355 8.93745 5.97249 8.71238 5.97249C8.48414 5.97249 8.351 6.12355 8.351 6.37971V10.1137C8.351 10.3699 8.48731 10.5209 8.71238 10.5209Z" fill="#A4A2A2"/>
<path d="M10.4083 10.5209C10.6334 10.5209 10.7633 10.3699 10.7633 10.1137V8.63587H12.2691C12.4656 8.63587 12.5956 8.51436 12.5956 8.32388C12.5956 8.13669 12.4688 8.01189 12.2691 8.01189H10.7633V6.63587H12.4307C12.6273 6.63587 12.7604 6.51436 12.7604 6.32388C12.7604 6.13341 12.6273 6.00533 12.4307 6.00533H10.589C10.2149 6.00533 10.0438 6.17281 10.0438 6.53735V10.1137C10.0438 10.3699 10.1801 10.5209 10.4083 10.5209Z" fill="#A4A2A2"/>
</svg>
