<svg width="17" height="17" viewBox="0 0 17 17" fill="none" xmlns="http://www.w3.org/2000/svg">
<path d="M11.4245 13.9167L6.22922 8.72141C5.96887 8.46107 5.54676 8.46106 5.28641 8.72141L2.75781 11.25M3.42448 13.9167H13.4245C13.7927 13.9167 14.0911 13.6182 14.0911 13.25V3.25001C14.0911 2.88182 13.7927 2.58334 13.4245 2.58334L3.42448 2.58334C3.05629 2.58334 2.75781 2.88182 2.75781 3.25001V13.25C2.75781 13.6182 3.05629 13.9167 3.42448 13.9167ZM11.4245 6.58334C11.4245 7.31972 10.8275 7.91668 10.0911 7.91668C9.35477 7.91668 8.75781 7.31972 8.75781 6.58334C8.75781 5.84696 9.35477 5.25001 10.0911 5.25001C10.8275 5.25001 11.4245 5.84696 11.4245 6.58334Z" stroke="#A4A2A2"/>
</svg>
