<svg width="118" height="29" viewBox="0 0 118 29" fill="none" xmlns="http://www.w3.org/2000/svg">
<path d="M7.20416 10.6626L3.90847 24.5816C3.8851 24.6751 3.86757 24.7803 3.85588 24.8971C3.84419 25.014 3.83835 25.1192 3.83835 25.2127C3.83835 25.6451 4.04287 25.8613 4.45191 25.8613C4.96613 25.8613 5.53878 25.5107 6.16987 24.8095C6.81265 24.0966 7.35024 23.2318 7.78266 22.215C7.86446 22.0047 7.95212 21.8703 8.04561 21.8118C8.13911 21.7417 8.30272 21.7534 8.53646 21.8469L9.15002 22.0923C9.34869 22.1741 9.45387 22.2676 9.46556 22.3728C9.48893 22.478 9.44803 22.6474 9.34285 22.8812C8.62995 24.5173 7.70669 25.8496 6.57307 26.8781C5.43945 27.9065 4.22986 28.4207 2.94431 28.4207C2.04442 28.4207 1.3549 28.1987 0.875737 27.7546C0.396577 27.2988 0.156997 26.621 0.156997 25.7211C0.156997 25.5925 0.168684 25.4347 0.192057 25.2478C0.215431 25.0491 0.238805 24.8855 0.262178 24.7569L3.03196 12.5909C3.10208 12.3104 3.10208 12.1351 3.03196 12.065C2.96184 11.9832 2.76316 11.9423 2.43593 11.9423H0.805616C0.501758 11.9423 0.303082 11.9014 0.209588 11.8196C0.12778 11.7378 0.0868757 11.5449 0.0868757 11.2411V10.347C0.0868757 10.0899 0.139466 9.93215 0.244648 9.87372C0.34983 9.8036 0.519289 9.76854 0.753025 9.76854H6.43283C6.91199 9.76854 7.18663 9.81528 7.25675 9.90878C7.32687 10.0023 7.30934 10.2535 7.20416 10.6626ZM4.17142 3.51024C4.17142 2.84409 4.40516 2.28896 4.87263 1.84486C5.3518 1.40076 5.91861 1.17871 6.57307 1.17871C7.22753 1.17871 7.7885 1.40076 8.25597 1.84486C8.72345 2.28896 8.95718 2.84409 8.95718 3.51024C8.95718 4.1647 8.72345 4.71398 8.25597 5.15808C7.7885 5.60218 7.22753 5.82423 6.57307 5.82423C5.91861 5.82423 5.3518 5.60218 4.87263 5.15808C4.40516 4.71398 4.17142 4.1647 4.17142 3.51024ZM12.166 9.76854H17.6881C18.1205 9.76854 18.3776 9.80944 18.4594 9.89125C18.5412 9.97306 18.5412 10.1776 18.4594 10.5048L17.7231 13.6953C17.5946 14.2446 17.5654 14.5426 17.6355 14.5894C17.7056 14.6244 17.951 14.3322 18.3718 13.7128C19.295 12.3572 20.2942 11.2995 21.3694 10.5399C22.4563 9.78022 23.5841 9.4004 24.7528 9.4004C25.5124 9.4004 26.2019 9.51143 26.8213 9.73348C27.4524 9.95553 27.9608 10.3237 28.3465 10.8379C28.7321 11.3521 28.9542 12.0358 29.0126 12.8889C29.071 13.7304 28.9308 14.7822 28.5919 16.0444L26.2954 24.3362C26.2019 24.6868 26.1552 24.9731 26.1552 25.1952C26.1552 25.6159 26.3597 25.8262 26.7687 25.8262C27.283 25.8262 27.8498 25.4932 28.4692 24.827C29.0886 24.1492 29.6203 23.3136 30.0644 22.3202C30.1696 22.0631 30.2689 21.8936 30.3624 21.8118C30.4559 21.73 30.6079 21.73 30.8182 21.8118L31.4318 22.0572C31.6422 22.1274 31.7649 22.2092 31.7999 22.3027C31.835 22.3845 31.7999 22.5539 31.6947 22.811C30.9818 24.4472 30.0527 25.7912 28.9074 26.843C27.7738 27.8831 26.5642 28.4032 25.2787 28.4032C24.3554 28.4032 23.6542 28.1811 23.175 27.737C22.7076 27.2813 22.4738 26.6151 22.4738 25.7386C22.4738 25.61 22.4855 25.4347 22.5089 25.2127C22.544 24.979 22.5849 24.7803 22.6316 24.6167L24.8229 16.5352C25.08 15.5769 25.267 14.7296 25.3839 13.9933C25.5007 13.2571 25.454 12.6786 25.2436 12.2578C25.0332 11.8371 24.5775 11.6267 23.8763 11.6267C23.14 11.6267 22.3628 11.9481 21.5447 12.5909C20.7266 13.2337 19.9319 14.0751 19.1606 15.1153C18.401 16.1554 17.7231 17.289 17.1271 18.5161C16.5428 19.7433 16.1162 20.9412 15.8474 22.1098L14.6904 27.141C14.632 27.4215 14.5502 27.6377 14.445 27.7896C14.3515 27.9299 14.1236 28 13.7613 28H11.8505C11.3363 28 11.0324 27.9533 10.9389 27.8598C10.8571 27.7663 10.863 27.515 10.9565 27.106L14.3047 12.6084C14.3865 12.2929 14.3807 12.1059 14.2872 12.0475C14.2054 11.9773 13.9658 11.9423 13.5685 11.9423H12.1485C11.8563 11.9423 11.681 11.8897 11.6226 11.7845C11.5642 11.6793 11.535 11.4748 11.535 11.171V10.4697C11.535 10.1659 11.57 9.97306 11.6401 9.89125C11.7103 9.80944 11.8856 9.76854 12.166 9.76854ZM42.5477 28.458C41.754 28.458 40.8686 28.3206 39.8916 28.0458C38.9451 27.771 38.0292 27.3589 37.1438 26.8093C36.289 26.2598 35.5715 25.5576 34.9914 24.7027C34.4419 23.8173 34.1671 22.7793 34.1671 21.5886H38.4719C38.4719 21.6496 38.4872 21.8634 38.5177 22.2297C38.5482 22.5656 38.6704 22.9625 38.8841 23.4204C39.1283 23.8478 39.5252 24.2295 40.0748 24.5653C40.6243 24.9011 41.4181 25.0691 42.4562 25.0691C43.6774 25.0691 44.5933 24.8554 45.2039 24.4279C45.8145 23.97 46.1198 23.4509 46.1198 22.8709C46.1198 22.1992 45.8298 21.6802 45.2497 21.3138C44.7002 20.9169 43.9827 20.5963 43.0973 20.3521C42.2119 20.1079 41.2655 19.8636 40.258 19.6194C39.281 19.3446 38.3498 18.9935 37.4644 18.5661C36.6096 18.1386 35.9074 17.5586 35.3578 16.8258C34.8083 16.0626 34.5335 15.0856 34.5335 13.8949C34.5335 12.1546 35.2357 10.8418 36.6401 9.95645C38.0445 9.04053 39.8305 8.58257 41.9982 8.58257C43.5247 8.58257 44.9444 8.82682 46.2572 9.31531C47.57 9.77326 48.6233 10.5213 49.4171 11.5593C50.2109 12.5668 50.6078 13.8949 50.6078 15.5435H46.303C46.3335 14.5971 46.1198 13.8949 45.6619 13.4369C45.2344 12.9484 44.6849 12.6126 44.0132 12.4294C43.3721 12.2462 42.7462 12.1546 42.1356 12.1546C41.0365 12.1546 40.1969 12.3531 39.6168 12.75C39.0673 13.1164 38.7925 13.6048 38.7925 14.2155C38.7925 14.9177 39.0673 15.4672 39.6168 15.8641C40.1969 16.2305 40.9296 16.5358 41.815 16.78C42.7309 17.0243 43.6774 17.2838 44.6544 17.5586C45.6619 17.8028 46.6083 18.1386 47.4937 18.5661C48.4096 18.9935 49.1423 19.5736 49.6919 20.3063C50.272 21.0085 50.562 21.955 50.562 23.1456C50.562 24.9469 49.814 26.2903 48.318 27.1757C46.8526 28.0305 44.9291 28.458 42.5477 28.458ZM56.7462 7.11711C55.7387 7.14764 55.0671 6.91866 54.7312 6.43017C54.4259 5.91115 54.2733 5.30054 54.2733 4.59834C54.2733 3.92666 54.4412 3.34658 54.777 2.85809C55.1129 2.36961 55.7693 2.12536 56.7462 2.12536C57.6927 2.12536 58.3186 2.36961 58.6239 2.85809C58.9597 3.34658 59.1276 3.92666 59.1276 4.59834C59.1276 5.30054 58.9597 5.89588 58.6239 6.38437C58.3186 6.84233 57.6927 7.08658 56.7462 7.11711ZM54.3649 28V9.17792H59.036V28H54.3649ZM69.5193 28C68.0233 28 66.8937 27.6336 66.1304 26.9009C65.3977 26.1682 65.0313 24.9775 65.0313 23.3288V12.4752H62.192V9.17792C63.0774 9.17792 63.7643 9.08633 64.2528 8.90314C64.7413 8.71996 65.0924 8.29253 65.3061 7.62086C65.5198 6.94919 65.6267 5.86535 65.6267 4.36936H69.382V9.17792H73.6868V12.4752H69.382V24.3363H73.7783V28H69.5193ZM85.7701 28.458C83.6024 28.458 81.8316 28 80.4577 27.0841C79.1144 26.1376 78.1069 24.9469 77.4352 23.512C76.7941 22.0465 76.4582 20.5048 76.4277 18.8866C76.3972 16.9937 76.7483 15.3146 77.481 13.8491C78.2443 12.3531 79.3128 11.1929 80.6867 10.3686C82.0911 9.51375 83.7398 9.08633 85.6327 9.08633C87.3118 9.08633 88.8078 9.45269 90.1207 10.1854C91.464 10.9182 92.5326 11.9562 93.3264 13.2995C94.1202 14.6124 94.5323 16.1694 94.5629 17.9707C94.5629 18.0318 94.5629 18.1997 94.5629 18.4745C94.5629 18.7492 94.5629 18.9782 94.5629 19.1614H80.8699C80.8699 20.9016 81.2973 22.245 82.1522 23.1914C83.007 24.1074 84.1825 24.5653 85.6785 24.5653C86.8386 24.5653 87.8003 24.2753 88.5636 23.6952C89.3574 23.1151 89.8306 22.3518 89.9833 21.4054H94.5171C94.3033 23.3899 93.4485 25.0691 91.9525 26.4429C90.4565 27.7863 88.3957 28.458 85.7701 28.458ZM81.0073 17.0548H89.8917C89.8612 16.8411 89.7848 16.5052 89.6627 16.0473C89.5711 15.5893 89.3727 15.1161 89.0674 14.6276C88.7926 14.1391 88.3652 13.727 87.7851 13.3911C87.205 13.0553 86.457 12.8874 85.5411 12.8874C84.3199 12.8874 83.3887 13.1469 82.7475 13.6659C82.1369 14.1544 81.6942 14.7345 81.4195 15.4061C81.1752 16.0473 81.0378 16.5968 81.0073 17.0548ZM109.416 11.4396C109.933 11.7839 110.472 12.1339 111.034 12.4897C111.608 12.8455 112.222 13.2414 112.876 13.6775C113.347 13.9874 113.708 14.3317 113.961 14.7104C114.213 15.0891 114.351 15.4736 114.374 15.8637C114.409 16.2539 114.322 16.6269 114.116 16.9827C113.886 17.3844 113.599 17.6196 113.255 17.6885C112.922 17.7459 112.59 17.7 112.257 17.5508C111.924 17.3901 111.637 17.1835 111.396 16.9311C110.937 16.4605 110.518 15.967 110.139 15.4506C109.761 14.9227 109.393 14.3948 109.038 13.8669C108.693 13.339 108.343 12.8512 107.988 12.4036C107.758 12.1052 107.586 11.8987 107.471 11.7839C107.356 11.6577 107.276 11.8987 107.23 12.5069C107.184 13.1381 107.15 13.7923 107.127 14.4694C107.104 15.1465 107.064 15.881 107.006 16.6728C106.972 17.2352 106.857 17.7229 106.662 18.1361C106.467 18.5377 106.203 18.8476 105.87 19.0657C105.549 19.2837 105.182 19.3927 104.768 19.3927C104.367 19.3927 104.04 19.2837 103.787 19.0657C103.546 18.8361 103.397 18.5377 103.34 18.1705C103.282 17.8033 103.322 17.4188 103.46 17.0171C103.632 16.3974 103.845 15.7949 104.097 15.2096C104.361 14.6243 104.625 14.0562 104.889 13.5054C105.164 12.9545 105.411 12.4208 105.629 11.9044C105.859 11.365 105.945 11.0609 105.887 10.992C105.841 10.9232 105.566 11.015 105.061 11.2675C104.522 11.5314 103.959 11.8183 103.374 12.1282C102.8 12.4381 102.169 12.7594 101.48 13.0922C100.975 13.3447 100.493 13.4881 100.034 13.5226C99.5868 13.5455 99.1851 13.4709 98.8294 13.2988C98.4851 13.1266 98.2096 12.8627 98.0031 12.5069C97.7965 12.1282 97.7391 11.7782 97.8309 11.4568C97.9227 11.1355 98.1121 10.8658 98.399 10.6477C98.6974 10.4182 99.0359 10.2633 99.4147 10.183C100.046 10.0223 100.677 9.90752 101.308 9.83866C101.951 9.7698 102.576 9.71242 103.185 9.66652C103.804 9.62061 104.395 9.56323 104.958 9.49437C105.6 9.40256 105.899 9.31075 105.853 9.21894C105.807 9.12713 105.583 8.94924 105.182 8.68529C104.688 8.35247 104.166 8.01392 103.615 7.66963C103.064 7.32534 102.467 6.94088 101.825 6.51626C101.354 6.20639 100.993 5.8621 100.74 5.48338C100.488 5.10466 100.344 4.7202 100.31 4.33001C100.287 3.93981 100.379 3.56683 100.585 3.21106C100.815 2.80939 101.096 2.57986 101.429 2.52248C101.773 2.45362 102.112 2.49379 102.444 2.64298C102.789 2.79218 103.076 2.99875 103.305 3.26271C103.787 3.74471 104.223 4.26115 104.613 4.81201C105.015 5.36288 105.394 5.90801 105.75 6.4474C106.117 6.98679 106.484 7.48601 106.851 7.94506C107.023 8.16311 107.155 8.33526 107.247 8.4615C107.351 8.57626 107.419 8.40412 107.454 7.94506C107.511 7.27943 107.551 6.59085 107.574 5.87932C107.609 5.15631 107.649 4.37018 107.695 3.52093C107.729 2.95858 107.844 2.47658 108.039 2.0749C108.234 1.66176 108.492 1.34615 108.814 1.1281C109.147 0.910053 109.52 0.801028 109.933 0.801028C110.346 0.801028 110.673 0.915792 110.914 1.14532C111.155 1.36337 111.304 1.65602 111.362 2.02326C111.419 2.37903 111.379 2.76349 111.241 3.17663C111.057 3.81931 110.828 4.44477 110.552 5.05302C110.289 5.66127 110.013 6.2523 109.726 6.82612C109.451 7.39993 109.204 7.96228 108.986 8.51314C108.837 8.90334 108.762 9.1386 108.762 9.21894C108.762 9.29927 108.957 9.24763 109.347 9.06401C109.933 8.7771 110.535 8.47298 111.155 8.15164C111.786 7.81882 112.475 7.46879 113.221 7.10155C113.726 6.84907 114.202 6.71135 114.65 6.6884C115.109 6.65397 115.51 6.72283 115.855 6.89497C116.21 7.06712 116.491 7.33108 116.698 7.68684C116.916 8.05409 116.973 8.40412 116.87 8.73693C116.778 9.05827 116.589 9.3337 116.302 9.56323C116.015 9.78128 115.677 9.93047 115.286 10.0108C114.655 10.1715 114.013 10.2862 113.358 10.3551C112.716 10.424 112.079 10.4813 111.448 10.5272C110.828 10.5617 110.231 10.6191 109.657 10.6994C109.095 10.7797 108.82 10.8601 108.831 10.9404C108.842 11.0207 109.038 11.1871 109.416 11.4396Z" fill="#1A1B1F"/>
</svg>
