<svg width="19" height="21" viewBox="0 0 19 21" fill="none" xmlns="http://www.w3.org/2000/svg">
<path d="M8.83803 19.3397C12.9878 19.3397 16.3518 15.9474 16.3518 11.7628C16.3518 7.57813 12.9878 4.18581 8.83803 4.18581C4.68827 4.18581 1.32422 7.57813 1.32422 11.7628C1.32422 15.9474 4.68827 19.3397 8.83803 19.3397Z" fill="#0A090B"/>
<path d="M13.7474 5.3243C13.4022 5.66952 13.4022 6.22922 13.7474 6.57444C14.0926 6.91965 14.6524 6.91965 14.9976 6.57444L13.7474 5.3243ZM15.7355 2.37259C15.3903 2.02737 14.8306 2.02737 14.4854 2.37259C14.1401 2.7178 14.1401 3.27751 14.4854 3.62272L15.7355 2.37259ZM16.6992 5.83651C17.0444 6.18172 17.6041 6.18172 17.9493 5.83651C18.2945 5.49129 18.2945 4.93159 17.9493 4.58638L16.6992 5.83651ZM9.72201 8.59135C9.72201 8.10314 9.32624 7.70737 8.83803 7.70737C8.34982 7.70737 7.95405 8.10314 7.95405 8.59135H9.72201ZM7.95405 11.5762C7.95405 12.0644 8.34982 12.4602 8.83803 12.4602C9.32624 12.4602 9.72201 12.0644 9.72201 11.5762H7.95405ZM6.62809 0.776178C6.13988 0.776178 5.74411 1.17195 5.74411 1.66016C5.74411 2.14836 6.13988 2.54413 6.62809 2.54413V0.776178ZM11.048 2.54413C11.5362 2.54413 11.932 2.14836 11.932 1.66016C11.932 1.17195 11.5362 0.776178 11.048 0.776178V2.54413ZM14.9976 6.57444L16.8424 4.72961L15.5923 3.47948L13.7474 5.3243L14.9976 6.57444ZM14.4854 3.62272L15.5923 4.72961L16.8424 3.47948L15.7355 2.37259L14.4854 3.62272ZM15.5923 4.72961L16.6992 5.83651L17.9493 4.58638L16.8424 3.47948L15.5923 4.72961ZM7.95405 8.59135V11.5762H9.72201V8.59135H7.95405ZM6.62809 2.54413H11.048V0.776178H6.62809V2.54413ZM15.4679 11.7628C15.4679 15.4662 12.4926 18.4557 8.83803 18.4557V20.2237C13.483 20.2237 17.2358 16.4286 17.2358 11.7628H15.4679ZM8.83803 18.4557C5.18343 18.4557 2.2082 15.4662 2.2082 11.7628H0.440241C0.440241 16.4286 4.1931 20.2237 8.83803 20.2237V18.4557ZM2.2082 11.7628C2.2082 8.05934 5.18343 5.06979 8.83803 5.06979V3.30183C4.1931 3.30183 0.440241 7.09691 0.440241 11.7628H2.2082ZM8.83803 5.06979C12.4926 5.06979 15.4679 8.05934 15.4679 11.7628H17.2358C17.2358 7.09691 13.483 3.30183 8.83803 3.30183V5.06979Z" fill="white"/>
</svg>
