<svg width="24" height="33" viewBox="0 0 24 33" fill="none" xmlns="http://www.w3.org/2000/svg">
<path d="M2.01676 26.0391L1.20739 29.4574C1.20165 29.4803 1.19735 29.5062 1.19448 29.5349C1.19161 29.5636 1.19017 29.5894 1.19017 29.6124C1.19017 29.7186 1.2404 29.7716 1.34085 29.7716C1.46713 29.7716 1.60777 29.6855 1.76275 29.5133C1.92061 29.3383 2.05263 29.1259 2.15883 28.8762C2.17892 28.8245 2.20044 28.7915 2.2234 28.7772C2.24636 28.7599 2.28655 28.7628 2.34395 28.7858L2.49463 28.846C2.54342 28.8661 2.56925 28.8891 2.57212 28.9149C2.57786 28.9408 2.56781 28.9824 2.54198 29.0398C2.36691 29.4416 2.14017 29.7688 1.86177 30.0213C1.58337 30.2739 1.28632 30.4002 0.970609 30.4002C0.749612 30.4002 0.580277 30.3457 0.462603 30.2366C0.344929 30.1247 0.286092 29.9582 0.286092 29.7372C0.286092 29.7056 0.288962 29.6669 0.294702 29.621C0.300443 29.5722 0.306183 29.532 0.311923 29.5004L0.992135 26.5127C1.00936 26.4438 1.00936 26.4007 0.992135 26.3835C0.974914 26.3634 0.926122 26.3534 0.84576 26.3534H0.445382C0.37076 26.3534 0.321968 26.3433 0.299008 26.3232C0.278917 26.3031 0.268872 26.2558 0.268872 26.1812V25.9616C0.268872 25.8985 0.281787 25.8597 0.307618 25.8454C0.333449 25.8281 0.375065 25.8195 0.432467 25.8195H1.82733C1.945 25.8195 2.01245 25.831 2.02967 25.854C2.04689 25.8769 2.04259 25.9386 2.01676 26.0391ZM1.27197 24.2826C1.27197 24.119 1.32937 23.9827 1.44417 23.8736C1.56185 23.7645 1.70105 23.71 1.86177 23.71C2.0225 23.71 2.16026 23.7645 2.27507 23.8736C2.38987 23.9827 2.44727 24.119 2.44727 24.2826C2.44727 24.4433 2.38987 24.5782 2.27507 24.6873C2.16026 24.7963 2.0225 24.8509 1.86177 24.8509C1.70105 24.8509 1.56185 24.7963 1.44417 24.6873C1.32937 24.5782 1.27197 24.4433 1.27197 24.2826ZM3.23531 25.8195H4.59143C4.69762 25.8195 4.76077 25.8296 4.78086 25.8497C4.80095 25.8698 4.80095 25.92 4.78086 26.0003L4.60004 26.7839C4.56847 26.9188 4.56129 26.992 4.57852 27.0034C4.59574 27.0121 4.65601 26.9403 4.75933 26.7882C4.98607 26.4553 5.23146 26.1955 5.49551 26.009C5.76243 25.8224 6.03939 25.7291 6.3264 25.7291C6.51296 25.7291 6.68229 25.7564 6.83441 25.8109C6.98939 25.8655 7.11424 25.9559 7.20895 26.0821C7.30367 26.2084 7.3582 26.3763 7.37255 26.5858C7.3869 26.7925 7.35246 27.0508 7.26923 27.3608L6.70525 29.3971C6.68229 29.4832 6.67081 29.5535 6.67081 29.6081C6.67081 29.7114 6.72104 29.763 6.82149 29.763C6.94778 29.763 7.08698 29.6812 7.23909 29.5176C7.3912 29.3512 7.52179 29.146 7.63086 28.902C7.65669 28.8389 7.68108 28.7973 7.70404 28.7772C7.72701 28.7571 7.76432 28.7571 7.81598 28.7772L7.96666 28.8374C8.01832 28.8547 8.04846 28.8747 8.05707 28.8977C8.06568 28.9178 8.05707 28.9594 8.03124 29.0226C7.85616 29.4244 7.62799 29.7544 7.34672 30.0127C7.06832 30.2682 6.77127 30.3959 6.45556 30.3959C6.22882 30.3959 6.05661 30.3414 5.93894 30.2323C5.82413 30.1204 5.76673 29.9568 5.76673 29.7415C5.76673 29.7099 5.7696 29.6669 5.77534 29.6124C5.78395 29.555 5.794 29.5062 5.80548 29.466L6.34362 27.4813C6.40676 27.246 6.45268 27.0379 6.48139 26.8571C6.51009 26.6763 6.49861 26.5342 6.44694 26.4309C6.39528 26.3275 6.28335 26.2759 6.11114 26.2759C5.93033 26.2759 5.73947 26.3548 5.53856 26.5127C5.33765 26.6705 5.14249 26.8772 4.95306 27.1326C4.76651 27.388 4.60004 27.6664 4.45367 27.9678C4.31016 28.2692 4.2054 28.5633 4.13939 28.8503L3.85525 30.0859C3.8409 30.1548 3.82081 30.2079 3.79498 30.2452C3.77202 30.2797 3.71605 30.2969 3.62708 30.2969H3.15782C3.03154 30.2969 2.95691 30.2854 2.93395 30.2624C2.91386 30.2395 2.9153 30.1778 2.93826 30.0773L3.76054 26.517C3.78063 26.4395 3.77919 26.3936 3.75623 26.3792C3.73614 26.362 3.67731 26.3534 3.57972 26.3534H3.23101C3.15926 26.3534 3.1162 26.3405 3.10185 26.3146C3.0875 26.2888 3.08033 26.2386 3.08033 26.1639V25.9917C3.08033 25.9171 3.08894 25.8698 3.10616 25.8497C3.12338 25.8296 3.16643 25.8195 3.23531 25.8195ZM10.6966 30.4093C10.5016 30.4093 10.2842 30.3756 10.0442 30.3081C9.81181 30.2406 9.58688 30.1394 9.36944 30.0045C9.1595 29.8695 8.98331 29.6971 8.84085 29.4871C8.70589 29.2697 8.63841 29.0148 8.63841 28.7223H9.6956C9.6956 28.7373 9.69935 28.7898 9.70684 28.8798C9.71434 28.9623 9.74433 29.0597 9.79682 29.1722C9.8568 29.2772 9.95427 29.3709 10.0892 29.4534C10.2242 29.5358 10.4191 29.5771 10.6741 29.5771C10.974 29.5771 11.1989 29.5246 11.3489 29.4196C11.4988 29.3072 11.5738 29.1797 11.5738 29.0372C11.5738 28.8723 11.5026 28.7448 11.3601 28.6549C11.2251 28.5574 11.0489 28.4787 10.8315 28.4187C10.6141 28.3587 10.3816 28.2987 10.1342 28.2387C9.89429 28.1713 9.66561 28.085 9.44817 27.9801C9.23823 27.8751 9.06578 27.7326 8.93082 27.5527C8.79586 27.3652 8.72838 27.1253 8.72838 26.8329C8.72838 26.4055 8.90083 26.0831 9.24573 25.8657C9.59063 25.6407 10.0292 25.5283 10.5616 25.5283C10.9365 25.5283 11.2851 25.5883 11.6075 25.7082C11.9299 25.8207 12.1886 26.0044 12.3836 26.2593C12.5785 26.5067 12.676 26.8329 12.676 27.2378H11.6188C11.6263 27.0053 11.5738 26.8329 11.4613 26.7204C11.3564 26.6005 11.2214 26.518 11.0564 26.473C10.899 26.428 10.7453 26.4055 10.5953 26.4055C10.3254 26.4055 10.1192 26.4543 9.97676 26.5517C9.8418 26.6417 9.77432 26.7617 9.77432 26.9116C9.77432 27.0841 9.8418 27.219 9.97676 27.3165C10.1192 27.4065 10.2992 27.4815 10.5166 27.5414C10.7415 27.6014 10.974 27.6652 11.2139 27.7326C11.4613 27.7926 11.6938 27.8751 11.9112 27.9801C12.1361 28.085 12.3161 28.2275 12.451 28.4074C12.5935 28.5799 12.6647 28.8123 12.6647 29.1047C12.6647 29.5471 12.481 29.877 12.1136 30.0944C11.7537 30.3044 11.2814 30.4093 10.6966 30.4093ZM14.1835 25.1684C13.936 25.1759 13.7711 25.1197 13.6886 24.9997C13.6136 24.8722 13.5761 24.7223 13.5761 24.5498C13.5761 24.3849 13.6174 24.2424 13.6999 24.1224C13.7823 24.0025 13.9435 23.9425 14.1835 23.9425C14.4159 23.9425 14.5696 24.0025 14.6446 24.1224C14.7271 24.2424 14.7683 24.3849 14.7683 24.5498C14.7683 24.7223 14.7271 24.8685 14.6446 24.9884C14.5696 25.1009 14.4159 25.1609 14.1835 25.1684ZM13.5986 30.2969V25.6745H14.7458V30.2969H13.5986ZM17.3203 30.2969C16.9529 30.2969 16.6755 30.2069 16.4881 30.027C16.3081 29.847 16.2181 29.5546 16.2181 29.1497V26.4842H15.5209V25.6745C15.7383 25.6745 15.907 25.652 16.027 25.607C16.1469 25.562 16.2331 25.4571 16.2856 25.2921C16.3381 25.1271 16.3644 24.861 16.3644 24.4936H17.2866V25.6745H18.3438V26.4842H17.2866V29.3971H18.3663V30.2969H17.3203ZM21.3112 30.4093C20.7789 30.4093 20.344 30.2969 20.0066 30.0719C19.6767 29.8395 19.4293 29.5471 19.2643 29.1947C19.1069 28.8348 19.0244 28.4562 19.0169 28.0588C19.0094 27.5939 19.0956 27.1815 19.2756 26.8216C19.463 26.4543 19.7254 26.1693 20.0628 25.9669C20.4077 25.757 20.8126 25.652 21.2775 25.652C21.6899 25.652 22.0573 25.742 22.3797 25.9219C22.7096 26.1019 22.972 26.3568 23.1669 26.6867C23.3619 27.0091 23.4631 27.3915 23.4706 27.8339C23.4706 27.8488 23.4706 27.8901 23.4706 27.9576C23.4706 28.025 23.4706 28.0813 23.4706 28.1263H20.1078C20.1078 28.5536 20.2128 28.8835 20.4227 29.116C20.6327 29.3409 20.9213 29.4534 21.2887 29.4534C21.5736 29.4534 21.8098 29.3821 21.9973 29.2397C22.1922 29.0972 22.3084 28.9098 22.3459 28.6774H23.4593C23.4069 29.1647 23.1969 29.5771 22.8295 29.9145C22.4621 30.2444 21.956 30.4093 21.3112 30.4093ZM20.1416 27.6089H22.3234C22.3159 27.5564 22.2972 27.474 22.2672 27.3615C22.2447 27.249 22.196 27.1328 22.121 27.0128C22.0535 26.8929 21.9485 26.7917 21.8061 26.7092C21.6636 26.6267 21.4799 26.5855 21.255 26.5855C20.9551 26.5855 20.7264 26.6492 20.5689 26.7767C20.419 26.8966 20.3103 27.0391 20.2428 27.204C20.1828 27.3615 20.1491 27.4965 20.1416 27.6089Z" fill="#1A1B1F"/>
<path d="M14.4125 13.4368C15.0265 13.8464 15.6678 14.2628 16.3364 14.686C17.0187 15.1092 17.7486 15.5802 18.5264 16.099C19.0858 16.4676 19.5156 16.8771 19.8158 17.3277C20.116 17.7782 20.2797 18.2355 20.307 18.6997C20.3479 19.1639 20.2456 19.6076 20 20.0308C19.7271 20.5086 19.386 20.7885 18.9766 20.8704C18.5809 20.9387 18.1853 20.8841 17.7896 20.7066C17.3939 20.5155 17.0528 20.2697 16.7662 19.9694C16.2204 19.4096 15.7224 18.8226 15.2722 18.2082C14.8219 17.5802 14.3853 16.9522 13.9623 16.3242C13.5529 15.6962 13.1368 15.116 12.7138 14.5836C12.4409 14.2286 12.2362 13.9829 12.0998 13.8464C11.9634 13.6962 11.8678 13.9829 11.8133 14.7065C11.7587 15.4573 11.7177 16.2355 11.6905 17.041C11.6632 17.8465 11.6154 18.7202 11.5472 19.6622C11.5063 20.3311 11.3698 20.9114 11.1379 21.4028C10.9059 21.8807 10.5921 22.2493 10.1964 22.5087C9.81434 22.7681 9.37771 22.8978 8.88651 22.8978C8.40895 22.8978 8.02008 22.7681 7.7199 22.5087C7.43337 22.2356 7.25599 21.8807 7.18777 21.4438C7.11954 21.0069 7.1673 20.5496 7.33103 20.0718C7.5357 19.3345 7.78813 18.6178 8.0883 17.9215C8.40213 17.2253 8.71595 16.5495 9.02978 15.8942C9.35725 15.2389 9.6506 14.6041 9.90985 13.9897C10.1827 13.3481 10.2851 12.9863 10.2169 12.9044C10.1623 12.8225 9.8348 12.9317 9.23445 13.232C8.59315 13.546 7.92457 13.8873 7.2287 14.2559C6.54647 14.6245 5.79602 15.0068 4.97735 15.4027C4.37699 15.7031 3.80392 15.8737 3.25814 15.9147C2.72601 15.942 2.24845 15.8532 1.82547 15.6485C1.41613 15.4437 1.08866 15.1297 0.84306 14.7065C0.597459 14.2559 0.529236 13.8395 0.638392 13.4573C0.747549 13.075 0.972683 12.7542 1.3138 12.4948C1.66855 12.2218 2.07107 12.0375 2.52134 11.9419C3.27179 11.7508 4.02224 11.6142 4.77268 11.5323C5.53678 11.4504 6.28041 11.3822 7.00357 11.3275C7.74037 11.2729 8.44306 11.2047 9.11164 11.1228C9.87574 11.0135 10.2305 10.9043 10.1759 10.7951C10.1213 10.6859 9.85527 10.4743 9.37771 10.1603C8.791 9.76437 8.17017 9.36164 7.51523 8.95207C6.8603 8.5425 6.15078 8.08516 5.38669 7.58003C4.82726 7.21142 4.39746 6.80185 4.09728 6.35133C3.7971 5.90081 3.62654 5.44346 3.58561 4.97929C3.55832 4.51512 3.66748 4.07142 3.91308 3.6482C4.18597 3.17038 4.52026 2.89734 4.91595 2.82908C5.32529 2.74716 5.7278 2.79494 6.12349 2.97242C6.53283 3.1499 6.87394 3.39564 7.14683 3.70964C7.7199 4.28303 8.2384 4.89738 8.70231 5.55268C9.17987 6.20798 9.63014 6.85646 10.0531 7.49811C10.4897 8.13977 10.9264 8.73364 11.363 9.27972C11.5677 9.53911 11.7246 9.7439 11.8337 9.89407C11.9565 10.0306 12.0384 9.82581 12.0793 9.27972C12.1476 8.4879 12.1953 7.66877 12.2226 6.82233C12.2635 5.96225 12.3113 5.02707 12.3659 4.01681C12.4068 3.34786 12.5432 2.77447 12.7752 2.29664C13.0072 1.80516 13.3142 1.42973 13.6962 1.17034C14.0919 0.910945 14.5353 0.78125 15.0265 0.78125C15.5178 0.78125 15.9066 0.917772 16.1932 1.19081C16.4797 1.4502 16.6571 1.79834 16.7253 2.23521C16.7935 2.65842 16.7458 3.11577 16.582 3.60725C16.3637 4.37177 16.0908 5.11581 15.7634 5.83938C15.4495 6.56294 15.1221 7.26603 14.7809 7.94864C14.4535 8.63124 14.1601 9.3002 13.9009 9.9555C13.7235 10.4197 13.6348 10.6995 13.6348 10.7951C13.6348 10.8907 13.8668 10.8292 14.3307 10.6108C15.0265 10.2695 15.7429 9.90772 16.4797 9.52546C17.2301 9.12955 18.0488 8.71316 18.9357 8.27629C19.5361 7.97594 20.1023 7.81211 20.6345 7.78481C21.1802 7.74385 21.6578 7.82577 22.0671 8.03055C22.4901 8.23533 22.8244 8.54933 23.07 8.97255C23.3292 9.40942 23.3975 9.82581 23.2747 10.2217C23.1655 10.604 22.9404 10.9316 22.5993 11.2047C22.2581 11.4641 21.8556 11.6415 21.3917 11.7371C20.6413 11.9282 19.8772 12.0648 19.0994 12.1467C18.3353 12.2286 17.5781 12.2969 16.8276 12.3515C16.0908 12.3924 15.3813 12.4607 14.6991 12.5562C14.0305 12.6518 13.703 12.7474 13.7167 12.8429C13.7303 12.9385 13.9623 13.1365 14.4125 13.4368Z" fill="#1A1B1F"/>
</svg>
