<svg width="278" height="116" viewBox="0 0 278 116" fill="none" xmlns="http://www.w3.org/2000/svg">
<rect x="0.384766" y="0.235718" width="277.256" height="115.56" rx="6" fill="#D9D9D9"/>
<path d="M150.021 31.7446H128.005C118.443 31.7446 112.742 37.4455 112.742 47.0082V69.0235C112.742 71.887 113.241 74.3828 114.213 76.4845C116.472 81.476 121.306 84.287 128.005 84.287H150.021C159.583 84.287 165.284 78.5862 165.284 69.0235V63.0074V47.0082C165.284 37.4455 159.583 31.7446 150.021 31.7446ZM161.002 59.3294C158.953 57.5692 155.643 57.5692 153.593 59.3294L142.665 68.7082C140.615 70.4684 137.305 70.4684 135.256 68.7082L134.363 67.9726C132.498 66.3438 129.529 66.1862 127.427 67.6048L117.602 74.1989C117.024 72.7277 116.682 71.0201 116.682 69.0235V47.0082C116.682 39.5997 120.597 35.6853 128.005 35.6853H150.021C157.429 35.6853 161.343 39.5997 161.343 47.0082V59.6184L161.002 59.3294Z" fill="white"/>
</svg>
