<svg width="15" height="16" viewBox="0 0 15 16" fill="none" xmlns="http://www.w3.org/2000/svg">
<path fill-rule="evenodd" clip-rule="evenodd" d="M1.76562 3.86782C1.76563 3.18583 2.03654 2.53178 2.51878 2.04954C3.00102 1.5673 3.65507 1.29639 4.33705 1.29639H12.9085C13.0677 1.29639 13.2237 1.34071 13.3591 1.4244C13.4945 1.50809 13.6039 1.62783 13.6751 1.7702C13.7463 1.91258 13.7765 2.07197 13.7622 2.23051C13.7479 2.38904 13.6897 2.54047 13.5942 2.66782L11.4085 5.5821L13.5942 8.49639C13.6897 8.62373 13.7479 8.77516 13.7622 8.9337C13.7765 9.09223 13.7463 9.25162 13.6751 9.394C13.6039 9.53637 13.4945 9.65611 13.3591 9.7398C13.2237 9.82349 13.0677 9.86781 12.9085 9.86781H4.33705C4.10973 9.86781 3.89171 9.95812 3.73096 10.1189C3.57022 10.2796 3.47991 10.4976 3.47991 10.725V13.2964C3.47991 13.5237 3.3896 13.7417 3.22886 13.9025C3.06811 14.0632 2.8501 14.1535 2.62277 14.1535C2.39544 14.1535 2.17742 14.0632 2.01668 13.9025C1.85593 13.7417 1.76563 13.5237 1.76562 13.2964V3.86782Z" stroke="#F8624E" stroke-width="1.71429"/>
</svg>
